<?xml version="1.0" standalone="no"?>
<!DOCTYPE svg PUBLIC "-//W3C//DTD SVG 20010904//EN"
 "http://www.w3.org/TR/2001/REC-SVG-20010904/DTD/svg10.dtd">
<svg version="1.0" xmlns="http://www.w3.org/2000/svg"
 width="700.000000pt" height="700.000000pt" viewBox="0 0 700.000000 700.000000"
 preserveAspectRatio="xMidYMid meet">
<metadata>
Created by potrace 1.14, written by Peter Selinger 2001-2017
</metadata>
<g transform="translate(0.000000,700.000000) scale(0.100000,-0.100000)"
fill="#000000" stroke="none">
<path d="M5313 6971 c-91 -24 -171 -103 -199 -197 -36 -126 26 -267 144 -326
l47 -24 0 -142 0 -141 -80 79 c-122 120 -202 178 -340 247 -208 104 -386 146
-608 145 -69 0 -113 -5 -122 -12 -11 -9 -15 -36 -15 -106 0 -84 -2 -93 -20
-99 -65 -21 -112 -108 -102 -190 4 -39 4 -39 -15 -23 -23 21 -112 60 -176 78
-150 41 -248 -82 -176 -222 18 -35 44 -62 159 -166 l44 -40 -44 -12 c-62 -17
-97 -36 -115 -64 -53 -81 4 -167 137 -206 57 -18 322 -73 408 -86 80 -12 155
-37 172 -57 27 -31 12 -35 -142 -35 -187 0 -246 -18 -275 -85 -33 -79 21 -142
162 -187 126 -41 249 -74 313 -86 14 -3 59 -12 100 -21 41 -8 85 -17 97 -19
35 -7 73 -23 74 -31 0 -5 2 -16 4 -26 3 -17 -2 -18 -63 -12 -37 4 -80 8 -96
10 -111 11 -149 -93 -64 -173 24 -22 192 -102 216 -102 15 0 14 14 16 -210 2
-206 1 -215 -22 -226 -10 -4 -477 -8 -1039 -9 l-1023 -2 -1 76 c-1 42 -3 94
-4 116 -6 72 -5 419 0 458 15 111 14 107 31 172 42 171 177 276 434 338 69 17
127 32 128 33 5 3 9 917 4 931 -4 13 -33 35 -232 182 l-125 92 -200 -4 c-110
-3 -207 -8 -215 -11 -8 -3 -31 -7 -50 -10 -19 -3 -64 -14 -100 -25 -279 -81
-503 -258 -615 -485 -11 -23 -27 -42 -35 -44 -9 -1 -27 17 -44 45 -187 306
-488 528 -756 558 -108 12 -334 15 -373 4 -27 -7 -41 -18 -49 -37 -11 -27 -14
-685 -3 -826 5 -81 20 -102 78 -111 122 -21 257 -91 338 -177 71 -75 144 -227
165 -342 3 -16 6 -32 8 -35 2 -3 7 -33 10 -66 4 -33 9 -85 13 -115 3 -30 6
-194 7 -365 1 -286 -1 -317 -20 -396 -65 -256 -249 -458 -498 -544 l-61 -21
-3 -76 -3 -75 79 -32 c206 -83 358 -211 430 -362 77 -160 94 -277 96 -667 1
-160 1 -292 0 -292 -1 0 -26 11 -56 25 -88 41 -162 31 -198 -27 -33 -54 -27
-98 23 -158 59 -73 73 -100 56 -110 -18 -11 -45 4 -174 99 -150 110 -163 116
-262 116 -67 0 -87 -4 -109 -21 -70 -52 -86 -116 -53 -212 14 -40 36 -72 86
-123 91 -94 108 -121 93 -150 -11 -19 -18 -21 -57 -15 -25 3 -76 15 -112 26
-115 34 -186 29 -233 -15 -52 -48 -50 -101 6 -184 53 -79 50 -95 -40 -186 -71
-72 -75 -79 -71 -113 9 -72 34 -97 105 -105 38 -5 64 -1 152 24 112 31 154 17
217 -71 l42 -59 6 -138 5 -138 38 -33 c63 -57 145 -109 263 -169 l114 -57 125
0 c268 0 485 47 690 149 118 59 193 113 277 197 l72 71 44 -39 c89 -80 114
-100 207 -162 228 -153 489 -245 760 -267 152 -13 200 -12 201 5 2 24 2 54 -5
255 -4 105 -9 269 -11 365 -7 255 -3 241 -93 308 -107 80 -127 96 -215 184
-58 57 -90 81 -120 89 -98 26 -145 49 -155 77 -11 26 -29 94 -38 137 -7 31
-12 208 -19 576 -3 185 -8 350 -10 366 -8 61 -44 58 635 58 341 0 620 -2 620
-5 0 -3 -21 -29 -46 -58 -52 -60 -150 -132 -218 -163 -60 -26 -142 -48 -154
-40 -5 3 -19 25 -30 47 -47 93 -153 150 -265 142 -104 -7 -186 -62 -232 -154
-85 -173 30 -382 221 -401 107 -11 204 35 266 128 l35 52 86 18 c197 39 389
179 513 370 l43 65 321 1 321 0 -2 -361 c-1 -317 -3 -370 -19 -436 -59 -235
-203 -355 -487 -406 -36 -7 -69 -21 -86 -38 -14 -15 -15 -58 -11 -409 3 -215
6 -408 7 -428 2 -34 10 -43 122 -130 194 -152 187 -148 252 -155 131 -15 309
-7 463 20 47 9 87 16 90 16 3 0 5 -15 4 -34 -4 -86 60 -193 143 -238 192 -105
417 29 416 247 0 77 -20 128 -73 188 l-30 34 39 26 c22 15 69 54 105 87 72 68
84 70 133 22 93 -91 228 -179 408 -267 215 -105 387 -153 570 -161 123 -6 142
4 153 81 4 28 6 227 5 443 -2 375 -4 395 -22 421 -29 40 -306 254 -333 257
-48 5 -164 32 -197 46 -33 13 -35 17 -37 64 -1 27 -5 135 -9 239 -8 225 -9
751 0 815 34 267 184 424 538 566 66 26 81 56 83 167 1 49 0 96 -3 105 -2 9
-25 27 -51 40 -50 24 -58 28 -191 106 -46 27 -91 49 -100 48 -58 -3 -218 43
-230 67 -5 9 -11 48 -15 86 -4 39 -8 81 -11 95 -2 14 -6 64 -10 111 -3 47 -7
96 -10 110 -9 58 -17 218 -20 394 -5 374 44 585 165 719 91 98 220 148 422
160 21 2 41 6 46 10 8 9 10 611 2 811 l-5 129 -150 119 c-82 65 -163 124 -178
131 -20 9 -84 12 -225 12 l-197 -1 -124 -44 c-68 -24 -155 -59 -192 -77 -38
-19 -71 -34 -74 -34 -3 0 -11 -5 -18 -10 -7 -6 -39 -28 -72 -50 -73 -47 -143
-113 -217 -201 l-55 -66 -1 162 -1 163 49 30 c187 117 176 392 -21 492 -44 23
-146 34 -196 21z m121 -182 c25 -12 56 -63 56 -94 0 -25 -28 -73 -49 -84 -32
-17 -66 -19 -98 -6 -35 15 -54 43 -60 92 -4 28 1 39 30 68 38 38 75 45 121 24z
m-2150 -4414 c67 -62 34 -162 -57 -172 -43 -5 -49 -3 -81 29 -27 27 -34 42
-32 64 2 16 4 35 5 42 0 6 13 22 27 35 46 40 96 41 138 2z m-1524 -1419 c0 -2
-8 -10 -17 -17 -16 -13 -17 -12 -4 4 13 16 21 21 21 13z m3672 -562 c22 -7 58
-65 58 -94 0 -52 -51 -100 -106 -100 -59 0 -110 60 -99 115 2 11 4 23 4 26 2
11 36 45 55 56 19 10 48 9 88 -3z"/>
</g>
</svg>
